<?xml version="1.0" encoding="utf-8"?>
<!-- Generator: Adobe Illustrator 24.1.0, SVG Export Plug-In . SVG Version: 6.00 Build 0)  -->
<svg version="1.1" id="Layer_1" xmlns="http://www.w3.org/2000/svg" xmlns:xlink="http://www.w3.org/1999/xlink" x="0px" y="0px"
	 viewBox="0 0 230 52" style="enable-background:new 0 0 230 52;" xml:space="preserve">
<style type="text/css">
	.st0{fill:#FFFFFF;}
</style>
<path class="st0" d="M23.54,0.98L0,51.02h12.59l4.08-9.75h18.02l2.07,9.75h11.9L37.1,0.98H23.54z M21.29,30.24l7.26-17.36h0.11
	l3.69,17.36H21.29z M89.59,12.62H54.42l1.75-11.64h35.17L89.59,12.62z M50.41,39.38h35.18l-1.75,11.64H48.66L50.41,39.38z
	 M82.49,31.82H51.54l1.75-11.64h30.95L82.49,31.82z M113.52,39.99c2.46,0,7.46-0.25,10.82-1.8l-1.81,12.01
	c-3.35,1.55-8.66,1.8-11.12,1.8c-14.13,0-23.64-10.28-23.15-24.91C88.76,12.01,100.65,0,115.06,0c5.21,0,9.38,1.2,14.35,4.13
	L127,16.11c-3.25-2.75-6.87-4.11-10.98-4.11c-8.7,0-15.11,6.08-15.39,14.55C100.36,34.59,105.6,39.99,113.52,39.99z M154.26,0.12
	c-13.66-0.97-25.78,10.2-27.32,25.21c-1.5,14.56,6.78,25.46,20.17,26.41c13.66,0.97,25.77-10.2,27.32-25.21
	C175.92,11.97,167.64,1.07,154.26,0.12z M162.52,27.75c-1.93,8.94-8.32,14.32-15.35,12.89c-6.39-1.31-9.54-7.9-7.72-16.36
	c1.92-8.94,8.32-14.32,15.35-12.88C161.18,12.69,164.34,19.29,162.52,27.75z M217.75,51.02l0.18-29.29l-14.67,29.29h-6.34
	l-5.32-29.3l-8.46,29.3H170.7l15.55-50.05h11.27l5.83,28.23L217.8,0.97h11.28L230,51.02H217.75z"/>
</svg>
