<?xml version="1.0" encoding="utf-8"?>
<!-- Generator: Adobe Illustrator 24.1.0, SVG Export Plug-In . SVG Version: 6.00 Build 0)  -->
<svg version="1.1" id="Layer_1" xmlns="http://www.w3.org/2000/svg" xmlns:xlink="http://www.w3.org/1999/xlink" x="0px" y="0px"
	 viewBox="0 0 250 103" style="enable-background:new 0 0 250 103;" xml:space="preserve">
<style type="text/css">
	.st0{fill:#FFFFFF;}
</style>
<g>
	<path class="st0" d="M144.29,32.04c-0.26-0.72-0.77-1.03-1.54-1.03h-6.88c-0.77,0-1.23,0.31-1.49,1.03l-13.92,38.72
		c-0.26,0.67,0.21,1.34,0.87,1.34h5.03c0.77,0,1.23-0.36,1.49-1.08l3.03-8.73h16.59l3.03,8.73c0.26,0.72,0.72,1.08,1.49,1.08h5.34
		c0.72,0,1.13-0.67,0.87-1.34L144.29,32.04z M133.24,55.56l5.96-16.95l5.91,16.95H133.24z"/>
	<path class="st0" d="M185.43,36.71v-4.57c0-0.67-0.46-1.13-1.13-1.13h-29.95c-0.67,0-1.13,0.46-1.13,1.13v4.57
		c0,0.67,0.46,1.13,1.13,1.13h11.25v33.12c0,0.67,0.46,1.13,1.13,1.13h5.19c0.67,0,1.13-0.46,1.13-1.13V37.84h11.25
		C184.97,37.84,185.43,37.38,185.43,36.71z"/>
	<path class="st0" d="M248.87,31.01h-29.95c-0.67,0-1.13,0.46-1.13,1.13v4.57c0,0.67,0.46,1.13,1.13,1.13h11.25v33.12
		c0,0.67,0.46,1.13,1.13,1.13h5.19c0.67,0,1.13-0.46,1.13-1.13V37.84h11.25c0.67,0,1.13-0.46,1.13-1.13v-4.57
		C250,31.47,249.54,31.01,248.87,31.01z"/>
	<path class="st0" d="M214.5,61.26l5.75-9.86c0.51-0.87,0.05-1.44-0.77-1.44h-4.98c-0.82,0-1.28,0.26-1.69,0.92l-3.24,5.65
		l-5.75-6.22c3.91-2.16,7.6-5.03,7.6-10.17c0-6.01-4.21-10.07-11.1-10.07c-6.73,0-11.2,4.36-11.2,10.73c0,2.52,1.08,5.39,3.44,8.11
		c-4.83,2.67-8.02,5.85-8.02,11.81c0,7.75,5.91,12.27,13.41,12.27c6.06,0,9.71-2.62,12.33-6.11l3.9,4.31
		c0.56,0.67,1.03,0.87,1.9,0.87h6.52c0.82,0,1.23-0.72,0.57-1.44L214.5,61.26z M200.42,36.45c2.67,0,4.01,1.75,4.01,3.85
		c0,2.26-1.54,3.54-5.19,5.65c-2.11-2.26-3.03-3.8-3.03-5.55C196.21,38.15,197.75,36.45,200.42,36.45z M198.11,66.55
		c-3.39,0-6.27-2.52-6.27-6.06c0-3.6,2.06-5.39,5.24-7.19l8.32,8.94C203.61,64.96,201.4,66.55,198.11,66.55z"/>
	<path class="st0" d="M57.84,59.99c22.69,0,40.32-5.57,43.17-15.75c0.53-1.87,0.55-3.85-0.12-6.51c-0.75-2.98-2.17-6.45-3.36-8.89
		c-0.04-0.08-0.11-0.07-0.09,0.03c0.44,13.34-36.76,21.94-55.54,21.94c-20.34,0-37.3-8.1-37.3-18.33c0-0.98,0.2-1.97,0.46-2.99
		c0.03-0.09-0.05-0.11-0.1-0.03c-1.51,2.99-3.18,8.04-3.67,10.65c-0.22,1.12-0.12,1.66,0.27,2.49C4.7,49.29,20.65,59.99,57.84,59.99
		z"/>
	<path class="st0" d="M49.21,20.62c17.78,0,31.57-5.1,31.57-10.01c0-1.17-1.02-1.99-3.1-3.23c-7.7-4.62-16.64-7.24-26.29-7.24
		c-9.71,0-18.92,2.72-26.65,7.46c-2.32,1.43-3.62,2.57-3.62,4.04C21.12,15.96,31.24,20.62,49.21,20.62z"/>
	<path class="st0" d="M57.73,40.19c24.95,0,36.09-8.15,36.09-15.31c0-2.56-1-4.05-3.54-6.95c-1.65-1.88-3.22-3.42-4.87-4.93
		c-0.08-0.07-0.14-0.01-0.08,0.07c0.22,0.34,0.32,0.7,0.32,1.19c0,5.71-17.47,15.8-45.28,15.8c-20.43,0-24.26-7.58-24.26-12.4
		c0-1.72,0.66-3.49,2.12-5.28c0.08-0.11,0.01-0.15-0.08-0.07c-2.65,2.25-5.09,4.78-7.23,7.51c-1.02,1.29-1.66,2.44-1.66,3.12
		C9.27,32.95,34.31,40.19,57.73,40.19z"/>
	<path class="st0" d="M102.6,48.7c-1.87,10.04-33.88,23.39-61.54,23.39c-26.3,0-38.7-12.25-40.95-20.61C0.08,51.36,0,51.39,0,51.5
		c0,2.81,0.28,6.45,0.77,8.86c0.23,1.17,1.19,3.01,2.59,4.48C9.72,71.48,25.6,80.78,53.1,80.78c37.47,0,46.03-12.48,47.78-16.58
		c1.25-2.94,1.9-8.24,1.9-12.7c0-1.08-0.03-1.94-0.07-2.78C102.71,48.58,102.63,48.57,102.6,48.7z"/>
	<path class="st0" d="M85.19,90.04c-4.05,2.71-15.61,8.62-33.8,8.62c-15.81,0-25.8-3.53-31.45-6.68c-0.11-0.05-0.15,0.03-0.07,0.09
		c8.71,6.74,19.65,10.8,31.51,10.8c12.98,0,24.82-4.82,33.85-12.73C85.35,90.04,85.3,89.97,85.19,90.04z"/>
	<path class="st0" d="M99.1,70.31c-7.73,11.37-30.11,18.47-53.22,18.47c-16.33,0-33.91-5.22-40.79-15.2
		c-0.07-0.1-0.14-0.06-0.09,0.05C11.41,87.25,30.85,94.7,54.88,94.7c12.65,0,26.54-3.45,34.85-10.27c2.27-1.86,4.44-4.33,6.38-7.66
		c1.12-1.91,2.21-4.19,3.1-6.42C99.25,70.24,99.18,70.18,99.1,70.31z"/>
</g>
</svg>
