<?xml version="1.0" encoding="utf-8"?>
<!-- Generator: Adobe Illustrator 24.1.0, SVG Export Plug-In . SVG Version: 6.00 Build 0)  -->
<svg version="1.1" id="Layer_1" xmlns="http://www.w3.org/2000/svg" xmlns:xlink="http://www.w3.org/1999/xlink" x="0px" y="0px"
	 viewBox="0 0 300 47" style="enable-background:new 0 0 300 47;" xml:space="preserve">
<style type="text/css">
	.st0{fill:#FFFFFF;}
</style>
<g>
	<path class="st0" d="M106.58,8.71c-1.65-1.29-3.67-2.19-5.99-2.67c-1.63-0.35-3.9-0.51-6.92-0.51H80.76h-1.22v36.56h14.74
		c2.35,0,4.46-0.21,6.29-0.61c1.87-0.42,3.5-1.04,4.84-1.86c1.35-0.83,2.61-1.96,3.73-3.38c1.12-1.42,2.05-3.22,2.76-5.34
		c0.7-2.12,1.06-4.57,1.06-7.27c0-3.19-0.53-6.07-1.56-8.58C110.33,12.48,108.71,10.35,106.58,8.71z M86.93,12.02
		c1.75,0,6.64,0,6.64,0c2.79,0,4.81,0.21,6,0.63c1.59,0.56,2.93,1.67,4.07,3.37s1.72,4.23,1.72,7.52c0,2.42-0.31,4.48-0.91,6.14
		c-0.58,1.61-1.4,2.89-2.42,3.82c-0.69,0.63-1.66,1.13-2.88,1.5c-1.28,0.38-3.12,0.58-5.46,0.58c0,0-5.01,0-6.77,0
		C86.93,33.47,86.93,14.13,86.93,12.02z"/>
	<path class="st0" d="M141.2,26.42c2.11,0,17.19,0,17.19,0v-6.5c0,0-15.08,0-17.19,0c0-1.65,0-6.25,0-7.9c2.13,0,18.45,0,18.45,0
		v-6.5h-1.22h-24.18v36.56h26.21v-6.5c0,0-17.11,0-19.26,0C141.2,33.85,141.2,28.15,141.2,26.42z"/>
	<path class="st0" d="M191.33,5.52h-1.23h-5.72v36.56h23.69v-6.5c0,0-14.64,0-16.74,0C191.33,33.33,191.33,5.52,191.33,5.52z"/>
	<path class="st0" d="M220.55,5.52v6.5c0,0,9.31,0,11.25,0c0,2.25,0,30.06,0,30.06h6.95c0,0,0-27.81,0-30.06c1.95,0,11.25,0,11.25,0
		v-6.5h-1.22C248.78,5.52,220.55,5.52,220.55,5.52z"/>
	<path class="st0" d="M283.74,5.52h-0.83h-5.83l-15.51,36.56h7.4c0,0,3.21-8.97,3.7-10.35c1.43,0,14.25,0,15.65,0
		c0.51,1.35,3.89,10.35,3.89,10.35H300L283.74,5.52z M276.41,25.59c0.87-2.3,3.14-8.32,3.14-8.32l0,0c0.36-0.95,0.56-1.97,0.86-2.95
		c0.6,1.76,1.19,3.51,1.19,3.51s2.07,5.51,2.92,7.75C282.42,25.59,278.5,25.59,276.41,25.59z"/>
	<polygon class="st0" points="0,40.85 26.75,28.84 53.5,40.85 26.75,0.45 	"/>
	<polygon class="st0" points="0.09,46.55 26.75,46.55 53.41,46.55 26.75,34.13 	"/>
	<path class="st0" d="M57.51,37.63c-0.89,0-1.6,0.72-1.6,1.6c0,0.88,0.72,1.61,1.6,1.61c0.88,0,1.6-0.72,1.6-1.61
		C59.11,38.35,58.39,37.63,57.51,37.63z M57.51,40.53c-0.72,0-1.3-0.58-1.3-1.3c0-0.72,0.58-1.3,1.3-1.3c0.72,0,1.3,0.58,1.3,1.3
		C58.81,39.95,58.23,40.53,57.51,40.53z"/>
	<path class="st0" d="M58.36,38.9c0-0.18-0.05-0.35-0.2-0.45c-0.13-0.07-0.32-0.08-0.47-0.08h-0.84v1.72h0.33v-0.73h0.34l0.39,0.73
		h0.4l-0.42-0.72C58.19,39.35,58.36,39.22,58.36,38.9z M57.69,39.11h-0.51v-0.49h0.42c0.17,0,0.42,0,0.42,0.23
		C58.02,39.07,57.89,39.11,57.69,39.11z"/>
</g>
</svg>
