<?xml version="1.0" encoding="utf-8"?>
<!-- Generator: Adobe Illustrator 24.1.0, SVG Export Plug-In . SVG Version: 6.00 Build 0)  -->
<svg version="1.1" id="Layer_1" xmlns="http://www.w3.org/2000/svg" xmlns:xlink="http://www.w3.org/1999/xlink" x="0px" y="0px"
	 viewBox="0 0 240 76" style="enable-background:new 0 0 240 76;" xml:space="preserve">
<style type="text/css">
	.st0{fill:#FFFFFF;}
</style>
<path class="st0" d="M57.16,27.15c0.3,1.44,0.43,3.18,0.43,5.06c0,6.04-1.67,13.56-6.99,18.88c-5.19,5.38-11.82,8.27-20.62,8.27
	C13.69,59.36,0,46.09,0,29.81C0,13.52,13.69,0.26,29.98,0.26c9,0,15.43,3.55,20.22,8.21l-5.68,5.68c-3.45-3.25-8.14-5.78-14.54-5.78
	C18.09,8.37,8.8,17.96,8.8,29.84c0,11.89,9.29,21.47,21.18,21.47c7.68,0,12.08-3.09,14.91-5.91c2.3-2.33,3.81-5.65,4.4-10.18H29.98
	v-8.08h27.18V27.15z M100.86,39.66c0,11-8.6,19.08-19.14,19.08s-19.14-8.11-19.14-19.08c0-11.06,8.6-19.08,19.14-19.08
	S100.86,28.59,100.86,39.66z M92.49,39.66c0-6.86-4.99-11.56-10.77-11.56s-10.77,4.69-10.77,11.56c0,6.8,4.99,11.56,10.77,11.56
	C87.5,51.21,92.49,46.45,92.49,39.66z M175.55,21.57h7.95v34.31c0,14.08-8.31,19.86-18.12,19.86c-9.26,0-14.81-6.21-16.91-11.26
	l7.29-3.02c1.31,3.12,4.5,6.8,9.62,6.8c6.27,0,10.18-3.91,10.18-11.2V54.4h-0.3c-1.87,2.3-5.48,4.33-10.05,4.33
	c-9.52,0-17.83-8.37-17.83-19.08c0-10.77,8.31-19.08,17.83-19.08c4.56,0,8.18,2.04,10.05,4.27h0.3L175.55,21.57L175.55,21.57z
	 M176.11,39.72c0-6.7-4.47-11.62-10.18-11.62c-5.78,0-10.18,4.83-10.18,11.56c0,6.63,4.4,11.56,10.18,11.56
	C171.64,51.21,176.14,46.39,176.11,39.72z M143.54,39.66c0,11-8.6,19.08-19.14,19.08s-19.14-8.11-19.14-19.08
	c0-11.06,8.6-19.08,19.14-19.08S143.54,28.59,143.54,39.66z M135.17,39.66c0-6.86-4.99-11.56-10.77-11.56s-10.77,4.69-10.77,11.56
	c0,6.8,4.99,11.56,10.77,11.56C130.18,51.21,135.17,46.45,135.17,39.66z M190.06,58.73h8.24V1.05h-8.24V58.73z M233.14,45.96
	l6.5,4.33c-2.1,3.09-7.16,8.44-15.89,8.44c-10.83,0-18.91-8.37-18.91-19.08c0-11.36,8.18-19.08,17.99-19.08
	c9.88,0,14.74,7.88,16.32,12.15L240,34.9l-25.51,10.54c1.97,3.84,4.99,5.78,9.26,5.78C228.02,51.21,230.97,49.11,233.14,45.96z
	 M213.14,39.07l17.24-7.12c-0.95-2.46-3.84-4.2-7.22-4.2C218.82,27.74,213.14,31.06,213.14,39.07z"/>
</svg>
