<?xml version="1.0" encoding="utf-8"?>
<!-- Generator: Adobe Illustrator 24.1.0, SVG Export Plug-In . SVG Version: 6.00 Build 0)  -->
<svg version="1.1" id="Layer_1" xmlns="http://www.w3.org/2000/svg" xmlns:xlink="http://www.w3.org/1999/xlink" x="0px" y="0px"
	 viewBox="0 0 170 142" style="enable-background:new 0 0 170 142;" xml:space="preserve">
<style type="text/css">
	.st0{fill-rule:evenodd;clip-rule:evenodd;fill:#FFFFFF;}
</style>
<path class="st0" d="M99.93,111.29c-8.42,0.01-15.16,6.76-15.13,15.12c-0.03,8.27,6.71,15.02,15.13,15.13
	c8.21-0.12,14.96-6.86,15.12-15.13C114.89,118.05,108.15,111.3,99.93,111.29z M99.93,135.97c-4.74-0.07-8.51-4.34-8.36-9.56
	c-0.15-5.32,3.62-9.59,8.36-9.56c4.54-0.03,8.31,4.24,8.35,9.56C108.24,131.63,104.48,135.9,99.93,135.97z M140.93,117.65h-8.76
	v23.1h-6.37v-23.1h-9.16v-5.17h24.29V117.65z M158.45,112.48h-7.96l-11.94,28.27h7.56l2.38-6.38h11.56l2.39,6.38H170L158.45,112.48z
	 M154.48,129.6h-3.98l3.98-10.35l3.98,10.35H154.48z M0,112.48h23.89v5.17h-8.76v23.1H8.76v-23.1H0V112.48z M40.6,111.29
	c-8.37,0.01-15.11,6.76-15.12,15.12c0.01,8.27,6.75,15.02,15.12,15.13c8.26-0.12,15.01-6.86,15.13-15.13
	C55.61,118.05,48.87,111.3,40.6,111.29z M40.6,135.97c-4.69-0.07-8.46-4.34-8.35-9.56c-0.11-5.32,3.66-9.59,8.35-9.56
	c4.6-0.03,8.36,4.24,8.36,9.56C48.96,131.63,45.2,135.9,40.6,135.97z M77.24,112.48h7.16L73.25,130v10.75h-3.18h-3.18V130
	l-11.15-17.51h7.56l6.77,11.94L77.24,112.48z M83.3,100.07c43.17,0,78.17-22.3,78.17-49.81s-35-49.81-78.17-49.81
	S5.13,22.75,5.13,50.26S40.13,100.07,83.3,100.07z M83.3,78.91c-5.85,0-10.66-12.41-11.17-28.24c3.62,0.27,7.35,0.42,11.17,0.42
	s7.56-0.14,11.17-0.42C93.96,66.5,89.15,78.91,83.3,78.91z M141.35,29.94c5.46,6.37,8.58,13.74,8.58,21.58
	c0,23.29-27.46,42.34-62.14,43.76c8.31-4.82,14.47-22.76,14.47-44.15c0-0.43,0-0.85-0.01-1.27
	C123.9,46.96,139.78,39.21,141.35,29.94z M128.32,23.71c0,6.22-11.07,11.56-26.92,13.91c-1.73-13.3-5.93-23.98-11.33-28.92
	C111.72,9.8,128.32,16.1,128.32,23.71z M83.3,16.82c5.01,0,9.26,9.09,10.7,21.65c-3.43,0.28-7.01,0.43-10.7,0.43
	c-3.69,0-7.27-0.15-10.7-0.43C74.04,25.92,78.29,16.82,83.3,16.82z M43.5,16.61c3.91-1.97,8.17-3.66,12.7-5.02
	c5.83-1.49,12.77-2.5,20.33-2.89c-5.39,4.95-9.6,15.62-11.33,28.92c-15.85-2.35-26.92-7.69-26.92-13.91
	C38.28,21.15,40.17,18.73,43.5,16.61z M25.38,30.55c2.15,9,17.8,16.47,38.98,19.31c0,0.42-0.01,0.85-0.01,1.27
	c0,21.34,6.14,39.25,14.42,44.11C44.42,93.6,17.32,74.65,17.32,51.51C17.32,43.92,20.24,36.78,25.38,30.55z"/>
</svg>
