<?xml version="1.0" encoding="utf-8"?>
<!-- Generator: Adobe Illustrator 24.1.0, SVG Export Plug-In . SVG Version: 6.00 Build 0)  -->
<svg version="1.1" id="Layer_1" xmlns="http://www.w3.org/2000/svg" xmlns:xlink="http://www.w3.org/1999/xlink" x="0px" y="0px"
	 viewBox="0 0 260 58" style="enable-background:new 0 0 260 58;" xml:space="preserve">
<style type="text/css">
	.st0{fill:#FFFFFF;}
</style>
<path class="st0" d="M103.82,5.4h11.24V16h-11.24V5.4z M103.82,56.29h11.24V18.73h-11.24V56.29z M26.9,18.72l-7.61,24.8l-7.97-24.76
	L0,18.77l13.33,37.52h12.08l12.65-37.57C38.06,18.72,26.9,18.72,26.9,18.72z M149.41,27.88v-0.6v-8.55h-31.14v9.15h17.95
	l-17.95,19.44v8.97h32.42v-8.97h-18.36L149.41,27.88z M88.09,24.59v-5.86h-11v37.56h11V39.41c0.32-9.68,8.47-10.53,8.47-10.53h3.73
	V18.73c0,0-3.43,0-4.05,0C92.76,18.73,89.47,22.69,88.09,24.59z M74.21,37.67c0,1.01-0.07,2-0.21,2.97h-9h-3.19H46.73
	c0.95,5.06,4.27,8.59,8.21,8.79c4,0.2,6.67-1.48,8.3-4.09l10.54,0.06c-2.83,7.37-10.62,12.5-18.56,12.5
	c-10.48,0-18.98-9.05-18.98-20.22s8.5-20.22,18.98-20.22C65.71,17.44,74.21,26.5,74.21,37.67z M62.79,33.17
	c-1.27-4.27-4.31-7.28-7.85-7.28c-3.54,0-6.58,3.01-7.85,7.28H62.79z M191.02,37.67c0,11.17-9.09,20.22-20.3,20.22
	s-20.3-9.05-20.3-20.22s9.09-20.22,20.3-20.22C181.93,17.44,191.02,26.5,191.02,37.67z M179.34,37.71c0-6.41-3.81-11.6-8.51-11.6
	s-8.51,5.19-8.51,11.6c0,6.4,3.81,11.6,8.51,11.6C175.53,49.3,179.34,44.11,179.34,37.71z M212.95,18.19
	c-4.04,0.94-6.97,3.84-8.37,5.51v-4.97h-10.87v37.56h10.87V33.53c2.35-6.88,7.35-7.29,10.41-5.41c2.7,1.66,3.11,5.42,3.11,5.42
	v22.75h10.91V31.67l0,0C228.96,19.74,219.76,16.61,212.95,18.19z M254.14,0.11L240.1,30.28l-5.06-11.56h-6.02l8.83,18.94h4.82
	L260,0.11H254.14z"/>
</svg>
